<?xml version="1.0" encoding="UTF-8" standalone="no"?><!DOCTYPE svg PUBLIC "-//W3C//DTD SVG 1.1//EN" "http://www.w3.org/Graphics/SVG/1.1/DTD/svg11.dtd"><svg width="100%" height="100%" viewBox="0 0 2048 515" version="1.1" xmlns="http://www.w3.org/2000/svg" xmlns:xlink="http://www.w3.org/1999/xlink" xml:space="preserve" xmlns:serif="http://www.serif.com/" style="fill-rule:evenodd;clip-rule:evenodd;stroke-linejoin:round;stroke-miterlimit:2;"><path d="M1,217.469c1.997,-0.427 3.995,-0.347 5.992,-0.347c122.986,0.006 245.971,0.005 368.957,0.005c1.809,0 3.618,0 5.741,0l-0,44.582c-126.604,-0 -253.198,-0 -380.241,0.145c-0.449,-14.542 -0.449,-29.229 -0.449,-44.385Z" style="fill:#f8faf9;fill-rule:nonzero;"/><path d="M2049,261.531c-1.982,0.354 -3.964,0.14 -5.947,0.14c-109.455,-0.016 -218.911,-0.013 -328.367,-0.013c-6.527,-0 -6.529,-0.002 -6.53,-6.452c-0.001,-12.474 0,-24.948 0,-38.091c113.487,0 226.7,0 340.378,-0.057c0.466,14.63 0.466,29.317 0.466,44.473Z" style="fill:#f7faf9;fill-rule:nonzero;"/><path d="M1013.16,267c0,-75.486 0.047,-150.472 -0.106,-225.457c-0.01,-4.903 1.004,-6.575 6.26,-6.529c31.825,0.274 63.661,-0.225 95.478,0.358c15.957,0.293 31.304,4.094 44.677,13.707c14.771,10.618 24.934,24.631 32.567,41.072c7.536,16.232 11.677,33.312 13.466,50.778c1.835,17.916 2.853,36.108 1.954,54.066c-1.259,25.17 -6.045,49.884 -17.632,72.745c-11.73,23.144 -29.074,39.784 -54.748,46.28c-7.574,1.917 -15.461,3.498 -23.227,3.602c-31.155,0.421 -62.319,0.123 -93.479,0.31c-4.278,0.026 -5.35,-1.368 -5.293,-5.442c0.211,-14.994 0.083,-29.993 0.083,-45.49m47.561,-182.865l-0,185.039c16.162,0 31.806,0.492 47.395,-0.219c7.156,-0.326 14.647,-1.989 21.21,-4.836c14.49,-6.286 20.911,-19.109 23.82,-33.828c1.801,-9.116 3.193,-18.341 4.198,-27.58c0.98,-9.007 2.028,-18.13 1.627,-27.138c-0.658,-14.76 -2.113,-29.512 -3.896,-44.186c-1.456,-11.99 -6.286,-22.866 -14.112,-32.138c-9.603,-11.378 -22.877,-14.777 -36.918,-15.348c-13.141,-0.534 -26.319,-0.155 -39.481,-0.145c-1.252,0.001 -2.504,0.241 -3.843,0.379Z" style="fill:#f7fcfb;fill-rule:nonzero;"/><path d="M738.116,91.838c5.95,-19.117 11.876,-37.824 17.855,-56.697c16.087,-0 31.735,0.064 47.382,-0.041c4.343,-0.029 4.452,3.686 5.26,6.062c6.846,20.131 13.451,40.344 20.001,60.574c6.495,20.064 12.745,40.207 19.287,60.256c4.878,14.951 10.091,29.793 15.077,44.709c4.008,11.99 7.898,24.019 11.842,36.03c4.341,13.223 8.73,26.43 13.012,39.673c3.437,10.63 6.596,21.353 10.205,31.924c1.058,3.099 -0.106,3.499 -2.529,3.501c-14.996,0.009 -29.993,-0.028 -44.989,0.028c-4.767,0.018 -4.247,-4.439 -5.002,-6.75c-5.786,-17.728 -10.926,-35.666 -16.626,-53.423c-0.538,-1.676 -3.542,-3.629 -5.416,-3.645c-27.991,-0.233 -55.986,-0.233 -83.978,0c-1.865,0.016 -4.855,1.986 -5.39,3.663c-5.567,17.457 -10.712,35.047 -16.03,52.583c-2.296,7.572 -2.355,7.555 -9.969,7.555c-12.331,0.001 -24.661,-0.031 -36.992,0.019c-3.448,0.014 -5.84,0.029 -4.08,-4.878c3.933,-10.966 7.295,-22.138 10.862,-33.235c3.425,-10.654 6.816,-21.32 10.222,-31.98c3.451,-10.8 6.926,-21.592 10.346,-32.402c3.275,-10.351 6.435,-20.739 9.751,-31.078c3.461,-10.793 7.1,-21.53 10.565,-32.323c3.523,-10.97 6.868,-21.998 10.403,-32.964c2.883,-8.945 5.932,-17.836 8.931,-27.161m36.705,31.613c-8.145,27.047 -16.29,54.095 -24.566,81.58l61.562,-0c-10.182,-33.126 -20.212,-65.759 -30.243,-98.393c-0.491,0.121 -0.982,0.242 -1.473,0.363c-1.752,5.207 -3.505,10.414 -5.28,16.45Z" style="fill:#f7fdfb;fill-rule:nonzero;"/><path d="M490,197.823c-11.995,0 -23.498,0.258 -34.981,-0.12c-4.967,-0.163 -6.242,1.639 -6.222,6.227c0.128,28.654 0.064,57.308 0.064,85.962c-0,7.83 -0.154,15.664 0.068,23.487c0.102,3.589 -1.231,4.569 -4.652,4.525c-12.326,-0.159 -24.66,-0.266 -36.98,0.039c-4.76,0.117 -6.194,-1.221 -6.185,-6.115c0.152,-77.965 0.107,-155.931 0.107,-233.896c0,-12.661 0.121,-25.324 -0.074,-37.982c-0.058,-3.73 1.143,-4.881 4.849,-4.874c50.311,0.094 100.622,0.107 150.932,-0.017c4.338,-0.011 4.844,2.168 4.831,5.518c-0.046,12.161 -0.015,24.322 -0.02,36.483c-0.003,5.936 -0.732,6.655 -6.955,6.668c-10.662,0.022 -21.324,0.006 -31.986,0.006c-23.49,0.001 -46.979,-0 -70.469,0.009c-0.971,0 -1.942,0.091 -3.466,0.168c0,4.78 0,9.387 0,13.995c0,15.326 0.142,30.655 -0.092,45.978c-0.065,4.229 1.254,5.385 5.407,5.362c28.987,-0.16 57.975,-0.009 86.961,-0.166c4.211,-0.023 5.864,0.898 5.753,5.498c-0.311,12.82 -0.228,25.655 -0.035,38.479c0.057,3.756 -1.188,4.868 -4.879,4.834c-17.158,-0.158 -34.317,-0.069 -51.976,-0.068Z" style="fill:#f6fcfa;fill-rule:nonzero;"/><path d="M1559.89,453.99c0.186,8.261 0.339,16.022 -3.768,23.067c-4.73,8.111 -12.467,11.947 -21.191,12.474c-10.214,0.617 -20.637,0.476 -30.765,-0.875c-12.699,-1.694 -20.348,-11.471 -20.901,-23.776c-0.619,-13.798 -0.25,-27.647 -0.121,-41.471c0.253,-27.093 0.77,-54.184 0.908,-81.276c0.065,-12.695 3.544,-24.198 10.334,-34.809c2.999,-4.687 2.196,-16.104 -1.133,-20.902c-2.993,-4.312 -3.13,-9.41 -0.206,-13.392c1.801,-2.453 5.747,-4.528 8.813,-4.647c12.973,-0.506 25.978,-0.207 38.971,-0.221c4.002,-0.005 7.584,0.957 9.424,4.872c2.136,4.546 2.612,9.355 -0.653,13.492c-4.986,6.318 -4.524,14.217 -1.352,19.485c8.359,13.884 11.116,28.42 10.73,44.214c-0.406,16.648 -0.221,33.315 -0.056,49.971c0.177,17.767 0.632,35.531 0.966,53.794Z" style="fill:#fbfefd;fill-rule:nonzero;"/><path d="M1375.2,166c0.001,-31.816 -0.078,-63.132 0.044,-94.447c0.041,-10.599 0.677,-21.195 0.866,-31.795c0.101,-5.74 4.836,-6.707 8.424,-7.088c7.236,-0.77 14.646,-0.696 21.914,-0.105c5.145,0.417 7.29,4.528 7.298,11.609c0.021,18.822 0.004,37.645 0.004,56.468c0.001,32.148 0.004,64.297 0.002,96.445c-0,8.592 -2.262,10.874 -10.773,10.883c-6.163,0.007 -12.328,0.089 -18.489,-0.023c-6.152,-0.113 -9.243,-3.278 -9.279,-9.465c-0.061,-10.661 -0.013,-21.321 -0.011,-32.482Z" style="fill:#f2fbf9;fill-rule:nonzero;"/><path d="M1602.57,207.952c-4.701,-0.766 -6.435,-3.33 -6.479,-7.618c-0.227,-22.094 -0.864,-44.187 -0.829,-66.279c0.049,-31.088 0.553,-62.176 0.886,-93.263c0.057,-5.233 2.32,-7.556 7.442,-7.603c7.329,-0.066 14.66,0.039 21.988,-0.046c3.807,-0.045 6.102,1.774 6.322,5.427c0.294,4.878 0.016,9.788 0.093,14.682c0.221,14.115 0.7,28.229 0.695,42.344c-0.005,14.78 -0.704,29.562 -0.646,44.341c0.074,19.11 0.647,38.218 0.905,57.328c0.112,8.275 -2.361,10.696 -10.443,10.703c-6.497,0.005 -12.993,-0.002 -19.934,-0.016Z" style="fill:#f6fdfb;fill-rule:nonzero;"/><path d="M475.397,351.398c15.415,8.407 24.251,21.27 27.973,37.792c4.534,20.123 3.38,39.926 -5.224,58.766c-7.813,17.108 -21.655,26.746 -40.448,27.776c-17.743,0.974 -35.551,0.712 -53.327,1.135c-3.393,0.08 -4.215,-1.285 -4.209,-4.435c0.078,-40.331 0.077,-80.662 0.003,-120.993c-0.006,-3.171 0.888,-4.432 4.25,-4.402c17.331,0.155 34.676,-0.236 51.991,0.324c6.248,0.202 12.429,2.52 18.991,4.037m-1.28,101.311c2.68,-3.681 6.19,-7.015 7.896,-11.103c7.174,-17.195 8.012,-35.038 3.047,-52.917c-3.369,-12.135 -10.426,-22.424 -23.491,-24.286c-14.289,-2.035 -28.942,-1.51 -43.421,-2.101l0,97.863c12.541,-0 24.764,0.309 36.96,-0.123c6.707,-0.238 13.194,-2.187 19.009,-7.333Z" style="fill:#edfaf5;fill-rule:nonzero;"/><path d="M775.15,347.097l91.931,-0l0,15.747c-5.35,0 -10.316,0 -15.282,0c-18.325,0 -36.651,0.083 -54.975,-0.07c-3.634,-0.03 -5.022,0.936 -4.929,4.764c0.232,9.657 0.225,19.326 0.003,28.984c-0.088,3.802 1.28,4.822 4.93,4.796c19.99,-0.145 39.982,0.028 59.972,-0.142c4.543,-0.038 6.214,1.506 6.072,6.079c-0.349,11.299 1.327,9.604 -9.429,9.65c-18.491,0.079 -36.984,0.126 -55.474,-0.052c-4.58,-0.044 -6.165,1.602 -6.068,6.125c0.223,10.491 0.065,20.989 0.073,31.484c0.004,6.252 0.345,6.61 6.433,6.612c22.323,0.008 44.648,0.124 66.969,-0.101c4.307,-0.044 5.448,1.544 5.404,5.409c-0.121,10.671 1,10.5 -10.102,10.462c-26.821,-0.092 -53.642,-0.044 -80.463,-0.01c-2.847,0.003 -5.146,0.163 -5.134,-3.992c0.114,-41.643 0.069,-83.286 0.069,-125.745Z" style="fill:#effaf7;fill-rule:nonzero;"/><path d="M1240.28,359.934c-4.899,0.984 -9.437,1.65 -13.77,2.984c-7.683,2.364 -12.111,8.094 -12.419,15.846c-0.274,6.92 1.431,11.961 10.722,15.178c10.736,3.717 21.89,6.241 32.888,9.188c9.729,2.609 19.179,6.068 26.526,13.1c7.954,7.613 10.797,17.426 9.25,28.348c-2.929,20.681 -20.655,31.148 -37.378,33.397c-12.845,1.728 -25.19,0.879 -37.232,-4.072c-14.572,-5.991 -22.792,-16.971 -25.693,-32.219c-0.362,-1.905 -0.58,-3.837 -1.007,-6.707c4.779,-0.587 9.548,-1.418 14.338,-1.567c1.042,-0.033 2.927,2.271 3.126,3.682c2.228,15.762 13.188,21.963 27.023,25.022c8.879,1.963 17.597,1.124 26.148,-1.961c8.741,-3.154 14.322,-10.518 14.338,-19.143c0.015,-8.487 -5.28,-14.91 -15.729,-18.093c-10.744,-3.273 -21.685,-5.896 -32.458,-9.08c-11.349,-3.356 -22.042,-7.916 -27.881,-19.259c-7.721,-15 -3.057,-33.891 11.665,-42.087c20.127,-11.205 40.846,-10.84 60.946,0.675c10.646,6.098 16.827,19.521 15.857,30.363c-4.17,0.438 -8.394,1.156 -12.618,1.16c-1.269,0.001 -3.396,-1.802 -3.678,-3.095c-2.842,-13.046 -10.395,-19.622 -24.187,-20.825c-2.779,-0.242 -5.55,-0.565 -8.777,-0.835Z" style="fill:#eefaf6;fill-rule:nonzero;"/><path d="M1631.11,387.416c0.807,19.959 1.8,39.465 2.693,58.975c0.462,10.104 0.873,20.213 1.068,30.324c0.144,7.419 -5.46,13.125 -12.433,13.1c-7.022,-0.025 -12.597,-5.615 -12.283,-13.122c0.832,-19.844 1.966,-39.675 3.006,-59.51c0.303,-5.783 0.707,-11.561 1.041,-17.342c0.171,-2.976 -1.174,-4.513 -4.222,-4.965c-7.182,-1.067 -10.021,-4.076 -9.85,-11.511c0.456,-19.737 0.91,-39.485 2.037,-59.19c0.635,-11.116 1.979,-22.279 4.158,-33.191c1.718,-8.602 4.872,-17.216 12.882,-22.268c2.612,-1.648 6.794,-2.623 9.485,-1.686c1.751,0.611 2.943,5.226 2.958,8.054c0.185,35.662 0.116,71.326 0.079,106.989c-0.001,1.631 -0.309,3.261 -0.619,5.343Z" style="fill:#f0fbf8;fill-rule:nonzero;"/><path d="M1583.92,126.866c-0,2.126 -0,3.769 -0,5.719l-159.667,0c0,-6.497 -0.13,-13.037 0.137,-19.562c0.041,-1.019 1.819,-2.066 2.947,-2.891c0.434,-0.317 1.294,-0.052 1.96,-0.052c50.104,0.003 100.207,0.007 150.311,0.01c1.286,0.001 2.572,0.001 4.313,0.001c0,5.727 0,11.01 -0.001,16.775Z" style="fill:#f3fcfa;fill-rule:nonzero;"/><path d="M1082.91,359.724c0.313,3.854 -2.169,3.103 -4.013,3.108c-12.143,0.03 -24.286,0.015 -37.156,0.015l-0,5.451c-0,33.98 0.002,67.96 -0.002,101.94c-0.001,6.354 -0.216,6.56 -6.423,6.58c-11.218,0.037 -11.218,0.037 -11.218,-11.302c-0,-32.314 -0.1,-64.629 0.109,-96.942c0.031,-4.729 -1.367,-5.97 -5.943,-5.828c-10.483,0.324 -20.986,0.001 -31.477,0.16c-3.351,0.051 -4.96,-0.806 -4.697,-4.468c0.259,-3.603 0.057,-7.239 0.057,-11.095l100.764,0c0,4.027 0,7.969 -0.001,12.381Z" style="fill:#edf9f5;fill-rule:nonzero;"/><path d="M1665.81,61.693c0.056,38.754 0.1,77.072 0.11,115.39c0.001,4.849 -2.012,6.774 -6.888,6.826c-2.832,0.031 -5.676,-0.155 -8.494,0.045c-4.675,0.332 -6.532,-1.552 -6.493,-6.346c0.164,-20.158 0.076,-40.319 0.076,-60.478c-0,-18.327 0.135,-36.656 -0.126,-54.98c-0.052,-3.693 1.44,-5.381 4.496,-5.681c4.116,-0.403 8.383,-0.707 12.404,-0.01c1.852,0.321 3.275,3.121 4.915,5.234Z" style="fill:#f0fbf9;fill-rule:nonzero;"/><path d="M1345.01,57.733c5.129,-0.431 9.958,-0.392 14.764,-0.706c3.643,-0.238 4.584,2.011 4.933,4.794c0.246,1.969 0.054,3.993 0.054,5.993c0.001,23.996 0.075,47.992 -0.037,71.988c-0.043,9.282 -0.539,18.562 -0.764,27.844c-0.094,3.873 0.273,7.782 -0.157,11.609c-0.182,1.619 -1.732,4.24 -2.91,4.386c-4.368,0.542 -8.942,0.791 -13.226,-0.004c-1.787,-0.332 -4.214,-3.487 -4.329,-5.475c-0.495,-8.499 -0.182,-17.043 -0.29,-25.568c-0.025,-1.936 -0.829,-3.867 -0.811,-5.796c0.252,-28.101 0.561,-56.201 0.962,-84.3c0.021,-1.489 0.979,-2.965 1.811,-4.765Z" style="fill:#ecfaf6;fill-rule:nonzero;"/><path d="M1277.98,317.847c-9.495,-0.001 -18.495,-0.101 -27.49,0.048c-3.237,0.054 -4.378,-1.044 -4.35,-4.332c0.129,-15.496 0.094,-30.993 0.023,-46.489c-0.012,-2.646 0.679,-4.011 3.629,-3.993c13.808,0.083 27.617,0.037 42.077,0.037l-0,8.578c0,13.331 -0.262,26.669 0.13,39.988c0.156,5.271 -1.609,6.865 -6.53,6.215c-2.293,-0.303 -4.659,-0.052 -7.489,-0.052Z" style="fill:#f2fbf8;fill-rule:nonzero;"/><path d="M922.248,300.993c-0,-10.979 0.106,-21.46 -0.052,-31.938c-0.063,-4.189 0.947,-6.176 5.779,-6.054c13.103,0.329 26.219,0.113 39.912,0.113c-0,4.275 -0,8.21 -0,12.146c-0,12.642 -0.091,25.286 0.06,37.927c0.04,3.35 -0.82,4.776 -4.45,4.725c-12.307,-0.174 -24.62,-0.171 -36.927,-0c-3.419,0.047 -4.302,-1.601 -4.316,-4.444c-0.019,-3.992 -0.006,-7.985 -0.006,-12.475Z" style="fill:#f3fbf8;fill-rule:nonzero;"/><path d="M597.054,300.993c0.001,-10.979 0.107,-21.46 -0.051,-31.938c-0.063,-4.189 0.946,-6.176 5.779,-6.054c13.102,0.329 26.219,0.113 39.911,0.113c0,4.275 0.001,8.21 0,12.146c0,12.642 -0.09,25.286 0.061,37.927c0.039,3.35 -0.821,4.776 -4.45,4.725c-12.308,-0.174 -24.62,-0.171 -36.928,-0c-3.418,0.047 -4.302,-1.601 -4.315,-4.444c-0.019,-3.992 -0.006,-7.985 -0.007,-12.475Z" style="fill:#f3fbf8;fill-rule:nonzero;"/><path d="M647.833,469.808c-0.013,7.008 -0.013,7.008 -6.489,7.013c-11.182,0.008 -11.182,0.008 -11.182,-11.335c0,-37.623 0.07,-75.247 -0.094,-112.87c-0.019,-4.386 1.186,-5.715 5.607,-5.627c12.154,0.243 12.158,0.049 12.158,11.971c0,36.791 0,73.582 0,110.848Z" style="fill:#ebf9f5;fill-rule:nonzero;"/><path d="M1695.77,146.798c-0.184,2.43 -0.305,4.396 -0.567,6.344c-0.475,3.526 -2.407,4.951 -6.093,4.894c-14.03,-0.215 -13.006,1.485 -12.97,-12.75c0.037,-14.492 -0.065,-28.986 0.06,-43.478c0.039,-4.597 0.58,-9.192 0.975,-13.78c0.065,-0.758 0.479,-2.071 0.872,-2.126c4.5,-0.628 9.25,-2.055 13.449,-1.111c1.965,0.442 4.014,5.537 4.08,8.565c0.385,17.65 0.192,35.312 0.194,53.442Z" style="fill:#e9f9f6;fill-rule:nonzero;"/><path d="M1331.94,146.91c-0.007,10.444 -4.084,13.479 -13.876,10.866c-3.672,-0.98 -4.674,-3.844 -4.907,-7.078c-0.204,-2.817 -0.089,-5.661 -0.038,-8.492c0.3,-16.757 0.651,-33.514 0.912,-50.272c0.048,-3.032 -0.164,-6.928 3.353,-7.233c4.56,-0.396 9.294,0.722 13.867,1.622c0.512,0.101 0.65,3.022 0.654,4.636c0.046,18.488 0.033,36.977 0.035,55.951Z" style="fill:#f0fcf9;fill-rule:nonzero;"/><path d="M1382,270c-9.914,60.783 -10,68 -8,77c2,9 10.253,19.974 26,25c0,0 -5.127,86.483 -5,106c0.087,13.346 24.707,14.243 25,0c0.401,-19.507 -6,-106 -6,-106c11.881,-5.105 24.339,-13.026 27,-25c2,-9 -6,-66 -9,-78l-1,72c0,4 -10,4 -10,0l-4,-75l-5,74c0.117,5.426 -8.881,4.433 -9,0l-4,-74l-5,74c-0.834,5.358 -9.605,5.552 -10,0l-2,-70Z" style="fill:#fff;"/></svg>