<?xml version="1.0" encoding="UTF-8" standalone="no"?><!DOCTYPE svg PUBLIC "-//W3C//DTD SVG 1.1//EN" "http://www.w3.org/Graphics/SVG/1.1/DTD/svg11.dtd"><svg width="100%" height="100%" viewBox="0 0 512 512" version="1.1" xmlns="http://www.w3.org/2000/svg" xmlns:xlink="http://www.w3.org/1999/xlink" xml:space="preserve" xmlns:serif="http://www.serif.com/" style="fill-rule:evenodd;clip-rule:evenodd;stroke-linejoin:round;stroke-miterlimit:2;"><path d="M475.934,0c9.565,-0 18.739,3.8 25.503,10.563c6.763,6.764 10.563,15.938 10.563,25.503l-0,439.868c0,9.565 -3.8,18.739 -10.563,25.503c-6.764,6.763 -15.938,10.563 -25.503,10.563l-439.868,0c-9.565,0 -18.739,-3.8 -25.503,-10.563c-6.763,-6.764 -10.563,-15.938 -10.563,-25.503l-0,-439.868c-0,-9.565 3.8,-18.739 10.563,-25.503c6.764,-6.763 15.938,-10.563 25.503,-10.563l439.868,0Z" style="fill:#066046;"/><g><path d="M200.05,128.915c-22.098,135.477 -22.289,151.563 -17.831,171.623c4.458,20.059 22.854,44.518 57.951,55.721c-0,-0 -11.427,192.757 -11.145,236.259c0.194,29.747 55.07,31.746 55.722,-0c0.893,-43.479 -13.373,-236.259 -13.373,-236.259c26.48,-11.379 54.248,-29.034 60.179,-55.721c4.457,-20.06 -13.373,-147.105 -20.06,-173.851l-2.229,160.477c0,8.916 -22.288,8.916 -22.288,0l-8.916,-167.164l-11.144,164.936c0.261,12.094 -19.795,9.88 -20.06,-0l-8.915,-164.936l-11.145,164.936c-1.859,11.941 -21.408,12.374 -22.288,-0l-4.458,-156.021Z" style="fill:#fff;"/><path d="M101.894,303.517c0,-37.94 -0.093,-75.284 0.052,-112.628c0.049,-12.639 0.808,-25.274 1.032,-37.915c0.122,-6.845 5.768,-7.998 10.047,-8.453c8.629,-0.918 17.465,-0.83 26.132,-0.126c6.135,0.499 8.693,5.401 8.703,13.844c0.025,22.446 0.005,44.892 0.005,67.339c0.001,38.337 0.005,76.674 0.002,115.011c-0,10.246 -2.698,12.967 -12.847,12.978c-7.349,0.008 -14.701,0.106 -22.048,-0.028c-7.336,-0.135 -11.023,-3.909 -11.065,-11.287c-0.072,-12.713 -0.016,-25.426 -0.013,-38.735Z" style="fill:#f2fbf9;fill-rule:nonzero;"/><path d="M373.031,353.546c-5.607,-0.915 -7.674,-3.972 -7.727,-9.086c-0.271,-26.347 -1.03,-52.692 -0.988,-79.037c0.058,-37.073 0.658,-74.145 1.056,-111.217c0.067,-6.239 2.766,-9.01 8.874,-9.066c8.74,-0.078 17.482,0.047 26.222,-0.055c4.539,-0.054 7.275,2.115 7.538,6.471c0.351,5.818 0.019,11.673 0.111,17.509c0.264,16.833 0.835,33.664 0.829,50.495c-0.006,17.626 -0.84,35.253 -0.771,52.877c0.089,22.789 0.772,45.575 1.08,68.364c0.133,9.868 -2.816,12.754 -12.454,12.763c-7.747,0.006 -15.494,-0.003 -23.77,-0.018Z" style="fill:#f6fdfb;fill-rule:nonzero;"/><path d="M448.453,179.131c0.067,46.215 0.12,91.909 0.131,137.603c0.002,5.782 -2.399,8.077 -8.213,8.14c-3.378,0.037 -6.769,-0.185 -10.13,0.054c-5.574,0.395 -7.789,-1.852 -7.743,-7.568c0.196,-24.039 0.091,-48.08 0.091,-72.121c-0,-21.855 0.161,-43.712 -0.15,-65.563c-0.062,-4.404 1.718,-6.417 5.362,-6.774c4.908,-0.481 9.996,-0.844 14.791,-0.012c2.209,0.383 3.905,3.721 5.861,6.241Z" style="fill:#f0fbf9;fill-rule:nonzero;"/><path d="M65.898,174.409c6.117,-0.514 11.875,-0.467 17.606,-0.842c4.345,-0.284 5.467,2.397 5.883,5.717c0.294,2.348 0.064,4.762 0.064,7.146c0.001,28.616 0.09,57.231 -0.043,85.846c-0.052,11.069 -0.644,22.135 -0.912,33.204c-0.112,4.618 0.325,9.28 -0.188,13.844c-0.216,1.931 -2.064,5.056 -3.469,5.23c-5.209,0.646 -10.664,0.943 -15.772,-0.005c-2.132,-0.395 -5.025,-4.157 -5.163,-6.529c-0.59,-10.135 -0.217,-20.323 -0.346,-30.49c-0.029,-2.308 -0.988,-4.611 -0.967,-6.911c0.301,-33.51 0.669,-67.02 1.147,-100.528c0.025,-1.775 1.168,-3.535 2.16,-5.682Z" style="fill:#ecfaf6;fill-rule:nonzero;"/><path d="M484.174,280.619c-0.22,2.897 -0.364,5.242 -0.676,7.565c-0.567,4.205 -2.871,5.904 -7.266,5.836c-16.731,-0.256 -15.51,1.771 -15.467,-15.204c0.044,-17.282 -0.078,-34.566 0.071,-51.847c0.047,-5.482 0.692,-10.962 1.163,-16.434c0.078,-0.903 0.572,-2.469 1.04,-2.534c5.366,-0.75 11.031,-2.451 16.038,-1.326c2.343,0.527 4.787,6.603 4.866,10.214c0.458,21.048 0.228,42.11 0.231,63.73Z" style="fill:#e9f9f6;fill-rule:nonzero;"/><path d="M50.309,280.752c-0.009,12.455 -4.87,16.074 -16.548,12.958c-4.378,-1.169 -5.573,-4.584 -5.852,-8.441c-0.242,-3.359 -0.105,-6.75 -0.045,-10.126c0.358,-19.983 0.776,-39.965 1.089,-59.949c0.056,-3.616 -0.196,-8.262 3.997,-8.626c5.439,-0.472 11.083,0.861 16.537,1.935c0.611,0.12 0.775,3.604 0.78,5.528c0.055,22.047 0.039,44.094 0.042,66.721Z" style="fill:#f0fcf9;fill-rule:nonzero;"/></g></svg>